<svg width="23" height="32" viewBox="0 0 23 32" fill="none" xmlns="http://www.w3.org/2000/svg">
<path d="M18.4 25.6C17.1235 25.6 16.1 27.024 16.1 28.8C16.1 29.6487 16.3423 30.4626 16.7737 31.0627C17.205 31.6629 17.79 32 18.4 32C19.01 32 19.595 31.6629 20.0263 31.0627C20.4577 30.4626 20.7 29.6487 20.7 28.8C20.7 27.9513 20.4577 27.1374 20.0263 26.5373C19.595 25.9371 19.01 25.6 18.4 25.6ZM0 0V3.2H2.3L6.44 15.344L4.876 19.264C4.7035 19.712 4.6 20.24 4.6 20.8C4.6 21.6487 4.84232 22.4626 5.27365 23.0627C5.70499 23.6629 6.29 24 6.9 24H20.7V20.8H7.383C7.30675 20.8 7.23362 20.7579 7.17971 20.6828C7.12579 20.6078 7.0955 20.5061 7.0955 20.4C7.0955 20.32 7.107 20.256 7.13 20.208L8.165 17.6H16.7325C17.595 17.6 18.354 16.928 18.745 15.952L22.862 5.6C22.9425 5.344 23 5.072 23 4.8C23 4.37565 22.8788 3.96869 22.6632 3.66863C22.4475 3.36857 22.155 3.2 21.85 3.2H4.8415L3.7605 0H0ZM6.9 25.6C5.6235 25.6 4.6 27.024 4.6 28.8C4.6 29.6487 4.84232 30.4626 5.27365 31.0627C5.70499 31.6629 6.29 32 6.9 32C7.51 32 8.09501 31.6629 8.52634 31.0627C8.95768 30.4626 9.2 29.6487 9.2 28.8C9.2 27.9513 8.95768 27.1374 8.52634 26.5373C8.09501 25.9371 7.51 25.6 6.9 25.6Z" fill="black"/>
</svg>
